<svg width="39" height="39" viewBox="0 0 39 39" fill="none" xmlns="http://www.w3.org/2000/svg">
<g clip-path="url(#clip0_364_1028)">
<path d="M0.8125 16.8418L4.8749 17.573V39.0226H14.6247V24.3979C14.6247 23.8604 15.0622 23.4229 15.5997 23.4229H23.3995C23.9371 23.4229 24.3745 23.8604 24.3745 24.3979V39.0226H34.1243V17.573L38.268 16.9231L19.4996 1.71338L0.8125 16.8418Z" fill="#000000"/>
<path d="M1.95025 18.5497H3.90021V39.9992H15.6V24.3995H23.3998V39.9992H35.0996V18.5497H37.0496C37.8829 18.5497 38.6238 18.0206 38.8943 17.2327C39.1647 16.445 38.9047 15.572 38.2469 15.0605L20.6972 1.41079C20.3449 1.13711 19.9224 1 19.5 1C19.0775 1 18.655 1.13718 18.3027 1.41079L0.753077 15.0605C0.0952693 15.5721 -0.1647 16.445 0.105705 17.2327C0.375957 18.0206 1.11763 18.5497 1.95025 18.5497ZM19.4999 2.94996L37.0496 16.5997H33.1496V38.0493H25.3498V24.3995C25.3498 23.3225 24.4769 22.4496 23.3998 22.4496H15.6C14.5229 22.4496 13.65 23.3225 13.65 24.3995V38.0493H5.85017V16.5997H1.95025L19.4999 2.94996Z" fill="#000000"/>
</g>
<defs>
<clipPath id="clip0_364_1028">
<rect width="39" height="39" fill="white"/>
</clipPath>
</defs>
</svg>
