<svg width="151" height="232" viewBox="0 0 151 232" fill="none" xmlns="http://www.w3.org/2000/svg">
<path fill-rule="evenodd" clip-rule="evenodd" d="M75.5 184.394C75.5 184.394 151 134.105 151 75.4339C151 55.4276 143.046 36.2407 128.887 22.0941C114.728 7.94748 95.5238 0 75.5 0C55.4762 0 36.2724 7.94748 22.1134 22.0941C7.95444 36.2407 0 55.4276 0 75.4339C0 134.105 75.5 184.394 75.5 184.394ZM106.019 99.4689H106.02L92.8274 76.7142L113.988 64.6083L124.731 83.2204C125.144 84.1047 125.438 85.0117 125.613 85.9394C126.2 88.96 125.613 91.7334 123.849 94.2582C123.566 94.7761 123.185 95.305 122.706 95.8442C122.662 95.887 122.63 95.931 122.608 95.9737L108.109 118.761C107.739 119.322 107.195 119.883 106.476 120.445C105.018 121.566 103.428 122.117 101.709 122.095L89.496 121.934L89.3327 131.321L77.3484 110.669L89.398 88.5612L89.1374 99.3401L106.019 99.4689ZM62.6212 34.8289C59.5301 34.6347 56.8302 35.5624 54.5229 37.6126C53.8045 38.26 53.1729 38.9721 52.6282 39.749L42.1135 58.5229L63.5349 70.2081L76.4335 47.1938L84.989 61.598L75.5191 66.9388L100.859 65.7088L112.485 44.8633L104.288 49.5891L98.0835 39.134C97.2351 37.6664 95.9505 36.6092 94.2309 35.9618L91.9124 35.4439L64.5152 35.1526L62.6212 34.8289ZM71.242 98.628H44.8244L53.2493 84.1921L62.5559 89.7919L49.2328 68.4285H25.1664L33.33 73.2514L27.093 83.6742C26.2002 85.1418 25.8848 86.7706 26.146 88.5619C26.2766 89.4462 26.4941 90.1907 26.7991 90.7953L39.665 114.781C39.5128 114.305 39.3822 113.799 39.2732 113.259C39.191 112.845 39.132 112.436 39.0961 112.032C39.132 112.436 39.191 112.845 39.2732 113.259C39.3822 113.798 39.5128 114.305 39.665 114.78C39.8825 115.449 40.1437 116.042 40.4487 116.56C41.7765 119.322 43.8886 121.2 46.7837 122.193C48.2421 122.71 49.5705 122.937 50.7676 122.872H71.2747L71.242 98.628ZM44.8244 98.628L40.514 105.976C39.6704 107.365 39.1925 108.834 39.0802 110.383C39.1924 108.834 39.6703 107.365 40.514 105.976L44.8244 98.628Z" fill="#EDEDE9"/>
</svg>
