<svg width="55" height="55" viewBox="0 0 47 47" fill="none" xmlns="http://www.w3.org/2000/svg">
<path fill-rule="evenodd" clip-rule="evenodd" d="M41.8284 28.5211C41.7014 28.647 41.5614 28.7729 41.4092 28.8988C40.6128 29.5954 39.7024 29.931 38.6776 29.9058L35.3743 29.8804L38.6776 29.9058C39.7024 29.931 40.6128 29.5954 41.4092 28.8988C41.5616 28.7729 41.7014 28.647 41.8284 28.5211L36.1874 37.3831C36.0436 37.6011 35.8317 37.8194 35.5522 38.0377C34.9848 38.474 34.3663 38.688 33.6972 38.6797L28.9456 38.6167L28.882 42.2673L24.2193 34.2361L28.9074 25.6385L28.8061 29.8303L35.3746 29.8804L30.2417 21.0313L38.4746 16.3233L42.6545 23.5615C42.8154 23.9054 42.9297 24.2581 42.9976 24.6188C43.2263 25.7936 42.9976 26.8721 42.3115 27.854C42.2012 28.0554 42.0531 28.2611 41.8668 28.4708C41.8495 28.4874 41.8371 28.5045 41.8284 28.5211ZM15.3385 5.82492C16.2362 5.0276 17.2867 4.66682 18.4893 4.74235L19.2262 4.86823L29.8857 4.98152L30.7878 5.18293C31.4568 5.43469 31.9566 5.84581 32.2867 6.41656L34.7007 10.4825L37.8899 8.64464L33.3666 16.7513L23.5076 17.2297L27.192 15.1527L23.8633 9.55098L18.8448 18.5011L10.5103 13.9568L14.6013 6.65573C14.8132 6.35362 15.059 6.07668 15.3385 5.82492ZM11.5651 29.5534H21.8434L21.8561 38.9818H13.8774C13.4116 39.007 12.8948 38.9189 12.3274 38.7174C11.201 38.3315 10.3792 37.6011 9.86261 36.5271C9.74395 36.3257 9.6423 36.0948 9.55769 35.8348C9.49848 35.6502 9.44766 35.4529 9.40523 35.2431C9.20195 34.2192 9.36279 33.2751 9.88802 32.4108L11.5651 29.5534L9.88802 32.4111C9.36279 33.2754 9.20195 34.2195 9.40523 35.2434C9.44766 35.4531 9.49848 35.6502 9.55769 35.835L4.55191 26.5073C4.43324 26.2722 4.34863 25.9826 4.29781 25.6387C4.19617 24.9421 4.3189 24.3087 4.66625 23.7379L7.09291 19.6846L3.91666 17.809H13.2803L18.4639 26.1171L14.843 23.9393L11.5651 29.5534ZM19.2262 4.86823L19.8361 4.96893C20.827 5.29622 21.5766 5.90045 22.0848 6.78161L23.8635 9.55098L22.0848 6.78161C21.5766 5.90045 20.827 5.29622 19.8361 4.96893L19.2262 4.86823Z" fill="black"/>
</svg>
