<svg width="136" height="208" viewBox="0 0 136 208" fill="none" xmlns="http://www.w3.org/2000/svg">
<path fill-rule="evenodd" clip-rule="evenodd" d="M68 165.319C68 165.319 136 120.232 136 67.6304C136 49.6937 128.836 32.4916 116.083 19.8085C103.331 7.12532 86.0347 0 68 0C49.9653 0 32.6692 7.12532 19.9167 19.8085C7.16426 32.4916 0 49.6937 0 67.6304C0 120.232 68 165.319 68 165.319ZM95.4875 89.179H95.4881L83.6061 68.7783L102.664 57.9247L112.34 74.6114C112.713 75.4042 112.977 76.2174 113.135 77.0491C113.664 79.7573 113.135 82.2437 111.546 84.5073C111.291 84.9716 110.948 85.4458 110.517 85.9293C110.477 85.9676 110.448 86.0071 110.428 86.0454L97.3698 106.476C97.0368 106.978 96.5463 107.482 95.8992 107.985C94.5858 108.991 93.154 109.484 91.6053 109.465L80.6056 109.32L80.4586 117.736L69.6648 99.2206L80.5174 79.3997L80.2827 89.0635L95.4875 89.179ZM56.4006 31.2259C53.6165 31.0518 51.1848 31.8835 49.1067 33.7217C48.4596 34.3021 47.8908 34.9405 47.4003 35.637L37.93 52.4688L57.2235 62.9452L68.8407 42.3117L76.5464 55.2258L68.0172 60.0141L90.84 58.9114L101.311 40.2222L93.9281 44.4592L88.3401 35.0856C87.576 33.7699 86.419 32.822 84.8702 32.2416L82.782 31.7773L58.1064 31.5161L56.4006 31.2259ZM64.165 88.4251H40.3717L47.9597 75.4826L56.3417 80.5031L44.3421 61.3497H22.6664L30.0191 65.6737L24.4016 75.0182C23.5975 76.334 23.3134 77.7943 23.5487 79.4003C23.6664 80.1932 23.8622 80.8606 24.1369 81.4027L35.7248 102.907C35.5877 102.481 35.4701 102.026 35.3719 101.543C35.304 101.202 35.2537 100.866 35.2209 100.533C35.2537 100.865 35.304 101.202 35.3719 101.542C35.4701 102.026 35.5877 102.481 35.7248 102.906C35.9207 103.506 36.1559 104.038 36.4306 104.502C37.6265 106.978 39.5288 108.662 42.1363 109.552C43.4498 110.016 44.6462 110.219 45.7244 110.161H64.1944L64.165 88.4251ZM40.3717 88.4251L36.4895 95.0133C35.7297 96.2584 35.2992 97.5754 35.1981 98.9643C35.2992 97.5752 35.7296 96.258 36.4895 95.0127L40.3717 88.4251Z" fill="#C4C4C4"/>
<path d="M122.433 197.241C122.433 203.183 98.2503 208 68.4187 208C38.5872 208 14.4039 203.183 14.4039 197.241C14.4039 191.299 38.5872 186.482 68.4187 186.482C98.2503 186.482 122.433 191.299 122.433 197.241Z" fill="#C4C4C4"/>
</svg>
