<svg width="54" height="65" viewBox="0 0 57 69" fill="none" xmlns="http://www.w3.org/2000/svg">
<path fill-rule="evenodd" clip-rule="evenodd" d="M28.1711 68.7705C28.1711 68.7705 56.3421 50.0149 56.3421 28.1334C56.3421 20.6719 53.3741 13.5161 48.091 8.24008C42.8079 2.96404 35.6425 0 28.1711 0C20.6996 0 13.5342 2.96404 8.25111 8.24008C2.96801 13.5161 0 20.6719 0 28.1334C0 50.0149 28.1711 68.7705 28.1711 68.7705ZM39.5585 37.0976H39.5588L34.6363 28.6112L42.5317 24.0962L46.5404 31.0377C46.6946 31.3675 46.8043 31.7057 46.8694 32.0517C47.0887 33.1783 46.8694 34.2126 46.2114 35.1543C46.1056 35.3474 45.9636 35.5447 45.7849 35.7458C45.7684 35.7617 45.7564 35.7781 45.7481 35.7941L40.3383 44.2929C40.2004 44.5019 39.9972 44.7113 39.7291 44.9206C39.185 45.339 38.5918 45.5442 37.9502 45.5363L33.3933 45.4759L33.3324 48.9768L28.8607 41.2748L33.3567 33.0296L33.2595 37.0496L39.5585 37.0976ZM23.3656 12.9899C22.2122 12.9174 21.2048 13.2634 20.3439 14.0281C20.0758 14.2695 19.8402 14.5351 19.6369 14.8248L15.7136 21.8267L23.7065 26.1847L28.5193 17.6014L31.7116 22.9735L28.1781 24.9654L37.6332 24.5067L41.971 16.7322L38.9125 18.4948L36.5975 14.5955C36.2809 14.0481 35.8016 13.6538 35.16 13.4124L34.2949 13.2192L24.0723 13.1106L23.3656 12.9899ZM26.5822 36.784H16.7251L19.8687 31.4001L23.3412 33.4886L18.37 25.521H9.39019L12.4363 27.3197L10.1091 31.2069C9.77595 31.7543 9.65825 32.3617 9.75572 33.0298C9.80446 33.3596 9.88561 33.6373 9.99941 33.8628L14.8 42.8082C14.7432 42.631 14.6945 42.442 14.6538 42.2408C14.6308 42.1247 14.6126 42.0096 14.5993 41.8957C14.6126 42.0096 14.6308 42.1245 14.6538 42.2406C14.6945 42.4417 14.7432 42.631 14.8 42.808C14.8812 43.0574 14.9786 43.2788 15.0924 43.4719C15.5879 44.5019 16.3759 45.2024 17.4562 45.5725C18.0004 45.7657 18.496 45.8502 18.9427 45.826H26.5944L26.5822 36.784ZM16.7251 36.784L15.1168 39.5246C14.802 40.0426 14.6237 40.5904 14.5818 41.1682C14.6237 40.5904 14.802 40.0424 15.1168 39.5244L16.7251 36.784Z" fill="#000000"/>
</svg>
