<svg id="visual" viewBox="0 0 900 675" width="900" height="675" xmlns="http://www.w3.org/2000/svg" xmlns:xlink="http://www.w3.org/1999/xlink" version="1.1"><path d="M0 201L21.5 208.3C43 215.7 86 230.3 128.8 230.8C171.7 231.3 214.3 217.7 257.2 211.8C300 206 343 208 385.8 220.8C428.7 233.7 471.3 257.3 514.2 260.7C557 264 600 247 642.8 251.2C685.7 255.3 728.3 280.7 771.2 303.3C814 326 857 346 878.5 356L900 366L900 676L878.5 676C857 676 814 676 771.2 676C728.3 676 685.7 676 642.8 676C600 676 557 676 514.2 676C471.3 676 428.7 676 385.8 676C343 676 300 676 257.2 676C214.3 676 171.7 676 128.8 676C86 676 43 676 21.5 676L0 676Z" fill="#8cad8b"></path><path d="M0 357L21.5 369.7C43 382.3 86 407.7 128.8 409.7C171.7 411.7 214.3 390.3 257.2 374C300 357.7 343 346.3 385.8 349C428.7 351.7 471.3 368.3 514.2 365.3C557 362.3 600 339.7 642.8 329.7C685.7 319.7 728.3 322.3 771.2 329.5C814 336.7 857 348.3 878.5 354.2L900 360L900 676L878.5 676C857 676 814 676 771.2 676C728.3 676 685.7 676 642.8 676C600 676 557 676 514.2 676C471.3 676 428.7 676 385.8 676C343 676 300 676 257.2 676C214.3 676 171.7 676 128.8 676C86 676 43 676 21.5 676L0 676Z" fill="#699367"></path><path d="M0 434L21.5 443.3C43 452.7 86 471.3 128.8 482.8C171.7 494.3 214.3 498.7 257.2 481.3C300 464 343 425 385.8 405.7C428.7 386.3 471.3 386.7 514.2 391.7C557 396.7 600 406.3 642.8 423.5C685.7 440.7 728.3 465.3 771.2 478.5C814 491.7 857 493.3 878.5 494.2L900 495L900 676L878.5 676C857 676 814 676 771.2 676C728.3 676 685.7 676 642.8 676C600 676 557 676 514.2 676C471.3 676 428.7 676 385.8 676C343 676 300 676 257.2 676C214.3 676 171.7 676 128.8 676C86 676 43 676 21.5 676L0 676Z" fill="#699367"></path><path d="M0 551L21.5 554.3C43 557.7 86 564.3 128.8 557.8C171.7 551.3 214.3 531.7 257.2 518.2C300 504.7 343 497.3 385.8 505.2C428.7 513 471.3 536 514.2 549.5C557 563 600 567 642.8 566.3C685.7 565.7 728.3 560.3 771.2 548.2C814 536 857 517 878.5 507.5L900 498L900 676L878.5 676C857 676 814 676 771.2 676C728.3 676 685.7 676 642.8 676C600 676 557 676 514.2 676C471.3 676 428.7 676 385.8 676C343 676 300 676 257.2 676C214.3 676 171.7 676 128.8 676C86 676 43 676 21.5 676L0 676Z" fill="#8cad8b"></path></svg>