<svg id="visual" viewBox="0 0 900 675" width="900" height="675" xmlns="http://www.w3.org/2000/svg" xmlns:xlink="http://www.w3.org/1999/xlink" version="1.1"><path d="M0 545L21.5 542C43 539 86 533 128.8 519.2C171.7 505.3 214.3 483.7 257.2 476.3C300 469 343 476 385.8 479.2C428.7 482.3 471.3 481.7 514.2 488.8C557 496 600 511 642.8 509.5C685.7 508 728.3 490 771.2 486C814 482 857 492 878.5 497L900 502L900 676L878.5 676C857 676 814 676 771.2 676C728.3 676 685.7 676 642.8 676C600 676 557 676 514.2 676C471.3 676 428.7 676 385.8 676C343 676 300 676 257.2 676C214.3 676 171.7 676 128.8 676C86 676 43 676 21.5 676L0 676Z" fill="#628e60"></path><path d="M0 492L21.5 491.5C43 491 86 490 128.8 495C171.7 500 214.3 511 257.2 519.5C300 528 343 534 385.8 538.3C428.7 542.7 471.3 545.3 514.2 544.7C557 544 600 540 642.8 536.2C685.7 532.3 728.3 528.7 771.2 520.8C814 513 857 501 878.5 495L900 489L900 676L878.5 676C857 676 814 676 771.2 676C728.3 676 685.7 676 642.8 676C600 676 557 676 514.2 676C471.3 676 428.7 676 385.8 676C343 676 300 676 257.2 676C214.3 676 171.7 676 128.8 676C86 676 43 676 21.5 676L0 676Z" fill="#6a9468"></path><path d="M0 549L21.5 545.5C43 542 86 535 128.8 530.2C171.7 525.3 214.3 522.7 257.2 522.7C300 522.7 343 525.3 385.8 527.7C428.7 530 471.3 532 514.2 540.3C557 548.7 600 563.3 642.8 565.3C685.7 567.3 728.3 556.7 771.2 550.3C814 544 857 542 878.5 541L900 540L900 676L878.5 676C857 676 814 676 771.2 676C728.3 676 685.7 676 642.8 676C600 676 557 676 514.2 676C471.3 676 428.7 676 385.8 676C343 676 300 676 257.2 676C214.3 676 171.7 676 128.8 676C86 676 43 676 21.5 676L0 676Z" fill="#739a71"></path><path d="M0 578L21.5 577C43 576 86 574 128.8 574.2C171.7 574.3 214.3 576.7 257.2 579C300 581.3 343 583.7 385.8 581.2C428.7 578.7 471.3 571.3 514.2 571.8C557 572.3 600 580.7 642.8 580.8C685.7 581 728.3 573 771.2 572.8C814 572.7 857 580.3 878.5 584.2L900 588L900 676L878.5 676C857 676 814 676 771.2 676C728.3 676 685.7 676 642.8 676C600 676 557 676 514.2 676C471.3 676 428.7 676 385.8 676C343 676 300 676 257.2 676C214.3 676 171.7 676 128.8 676C86 676 43 676 21.5 676L0 676Z" fill="#7ba079"></path><path d="M0 615L21.5 611C43 607 86 599 128.8 595C171.7 591 214.3 591 257.2 594C300 597 343 603 385.8 606C428.7 609 471.3 609 514.2 608.7C557 608.3 600 607.7 642.8 605.3C685.7 603 728.3 599 771.2 595.7C814 592.3 857 589.7 878.5 588.3L900 587L900 676L878.5 676C857 676 814 676 771.2 676C728.3 676 685.7 676 642.8 676C600 676 557 676 514.2 676C471.3 676 428.7 676 385.8 676C343 676 300 676 257.2 676C214.3 676 171.7 676 128.8 676C86 676 43 676 21.5 676L0 676Z" fill="#84a782"></path><path d="M0 651L21.5 650.8C43 650.7 86 650.3 128.8 648.3C171.7 646.3 214.3 642.7 257.2 639.7C300 636.7 343 634.3 385.8 630.8C428.7 627.3 471.3 622.7 514.2 622.3C557 622 600 626 642.8 628C685.7 630 728.3 630 771.2 631.7C814 633.3 857 636.7 878.5 638.3L900 640L900 676L878.5 676C857 676 814 676 771.2 676C728.3 676 685.7 676 642.8 676C600 676 557 676 514.2 676C471.3 676 428.7 676 385.8 676C343 676 300 676 257.2 676C214.3 676 171.7 676 128.8 676C86 676 43 676 21.5 676L0 676Z" fill="#8cad8b"></path></svg>