<svg id="visual" viewBox="0 0 900 675" width="900" height="675" xmlns="http://www.w3.org/2000/svg" xmlns:xlink="http://www.w3.org/1999/xlink" version="1.1"><path d="M0 424L18.8 406.3C37.7 388.7 75.3 353.3 112.8 349.3C150.3 345.3 187.7 372.7 225.2 400C262.7 427.3 300.3 454.7 337.8 442.5C375.3 430.3 412.7 378.7 450.2 358C487.7 337.3 525.3 347.7 562.8 371.5C600.3 395.3 637.7 432.7 675.2 454.7C712.7 476.7 750.3 483.3 787.8 487.2C825.3 491 862.7 492 881.3 492.5L900 493L900 0L881.3 0C862.7 0 825.3 0 787.8 0C750.3 0 712.7 0 675.2 0C637.7 0 600.3 0 562.8 0C525.3 0 487.7 0 450.2 0C412.7 0 375.3 0 337.8 0C300.3 0 262.7 0 225.2 0C187.7 0 150.3 0 112.8 0C75.3 0 37.7 0 18.8 0L0 0Z" fill="#8cad8b"></path><path d="M0 419L18.8 406C37.7 393 75.3 367 112.8 339.7C150.3 312.3 187.7 283.7 225.2 299.8C262.7 316 300.3 377 337.8 406.3C375.3 435.7 412.7 433.3 450.2 412.2C487.7 391 525.3 351 562.8 345.8C600.3 340.7 637.7 370.3 675.2 365.3C712.7 360.3 750.3 320.7 787.8 313.5C825.3 306.3 862.7 331.7 881.3 344.3L900 357L900 0L881.3 0C862.7 0 825.3 0 787.8 0C750.3 0 712.7 0 675.2 0C637.7 0 600.3 0 562.8 0C525.3 0 487.7 0 450.2 0C412.7 0 375.3 0 337.8 0C300.3 0 262.7 0 225.2 0C187.7 0 150.3 0 112.8 0C75.3 0 37.7 0 18.8 0L0 0Z" fill="#84a782"></path><path d="M0 331L18.8 316.2C37.7 301.3 75.3 271.7 112.8 266.5C150.3 261.3 187.7 280.7 225.2 277.8C262.7 275 300.3 250 337.8 250.3C375.3 250.7 412.7 276.3 450.2 295.5C487.7 314.7 525.3 327.3 562.8 335.5C600.3 343.7 637.7 347.3 675.2 350.2C712.7 353 750.3 355 787.8 344.5C825.3 334 862.7 311 881.3 299.5L900 288L900 0L881.3 0C862.7 0 825.3 0 787.8 0C750.3 0 712.7 0 675.2 0C637.7 0 600.3 0 562.8 0C525.3 0 487.7 0 450.2 0C412.7 0 375.3 0 337.8 0C300.3 0 262.7 0 225.2 0C187.7 0 150.3 0 112.8 0C75.3 0 37.7 0 18.8 0L0 0Z" fill="#7ba079"></path><path d="M0 257L18.8 260.5C37.7 264 75.3 271 112.8 272.3C150.3 273.7 187.7 269.3 225.2 250.7C262.7 232 300.3 199 337.8 191.7C375.3 184.3 412.7 202.7 450.2 216.3C487.7 230 525.3 239 562.8 245.5C600.3 252 637.7 256 675.2 243.5C712.7 231 750.3 202 787.8 192.7C825.3 183.3 862.7 193.7 881.3 198.8L900 204L900 0L881.3 0C862.7 0 825.3 0 787.8 0C750.3 0 712.7 0 675.2 0C637.7 0 600.3 0 562.8 0C525.3 0 487.7 0 450.2 0C412.7 0 375.3 0 337.8 0C300.3 0 262.7 0 225.2 0C187.7 0 150.3 0 112.8 0C75.3 0 37.7 0 18.8 0L0 0Z" fill="#739a71"></path><path d="M0 187L18.8 188.3C37.7 189.7 75.3 192.3 112.8 180C150.3 167.7 187.7 140.3 225.2 129.8C262.7 119.3 300.3 125.7 337.8 134.3C375.3 143 412.7 154 450.2 157.2C487.7 160.3 525.3 155.7 562.8 146.7C600.3 137.7 637.7 124.3 675.2 117.2C712.7 110 750.3 109 787.8 115.5C825.3 122 862.7 136 881.3 143L900 150L900 0L881.3 0C862.7 0 825.3 0 787.8 0C750.3 0 712.7 0 675.2 0C637.7 0 600.3 0 562.8 0C525.3 0 487.7 0 450.2 0C412.7 0 375.3 0 337.8 0C300.3 0 262.7 0 225.2 0C187.7 0 150.3 0 112.8 0C75.3 0 37.7 0 18.8 0L0 0Z" fill="#6a9468"></path><path d="M0 94L18.8 99C37.7 104 75.3 114 112.8 115.3C150.3 116.7 187.7 109.3 225.2 111C262.7 112.7 300.3 123.3 337.8 127.8C375.3 132.3 412.7 130.7 450.2 118C487.7 105.3 525.3 81.7 562.8 74.7C600.3 67.7 637.7 77.3 675.2 78.3C712.7 79.3 750.3 71.7 787.8 79.2C825.3 86.7 862.7 109.3 881.3 120.7L900 132L900 0L881.3 0C862.7 0 825.3 0 787.8 0C750.3 0 712.7 0 675.2 0C637.7 0 600.3 0 562.8 0C525.3 0 487.7 0 450.2 0C412.7 0 375.3 0 337.8 0C300.3 0 262.7 0 225.2 0C187.7 0 150.3 0 112.8 0C75.3 0 37.7 0 18.8 0L0 0Z" fill="#628e60"></path></svg>