<svg xmlns="http://www.w3.org/2000/svg" stroke="currentColor" viewBox="0 0 20.61 56.12">
<defs><style>.cls-1{fill:none;stroke-miterlimit:10;stroke-width:2px;}</style></defs>
<g id="Layer_2" data-name="Layer 2"><g id="Layer_1-2" data-name="Layer 1"><path class="cls-1" d="M19.93,22.31A67,67,0,0,0,.68,22.15"/><path class="cls-1" d="M14.26,3c3.16.19,5.35.6,5.35,1.07V53.94c0, .65-4.17,1.18-9.31,1.18S1,54.59,1,53.94V4.07C1,3.6,3.19,3.19,6.35,3"/><path class="cls-1" d="M14.26,3s0-.07,0-. 11c0-1-1.78-1.89-4-1.89s-4,.85-4,1.89c0,0,0,.08,0,.11,1.2-.07,2.54-.11,4-.11S13.06,2.93,14.26,3Z"/></g></g></svg>