<svg xmlns="http://www.w3.org/2000/svg" viewBox="0 0 31.36 54.42" stroke="currentColor">
<defs><style>.cls-1{fill:none;stroke-miterlimit:10;stroke-width:2px;}</style>
</defs><g id="Layer_2" data-name="Layer 2"><g id="Layer_1-2" data-name="Layer 1">
<polyline class="cls-1" points="26.88 53.42 3.45 53.42 1 50.88 1 5.99 4.67 2.69 4.58 1 25.94 1"/>
<polyline class="cls-1" points="4.48 53.42 27.92 53.42 30.36 50.88 30.36 5.99 26.69 2.69 26.79 1 5.42 1"/>
<path class="cls-1" d="M.88,27.21A39.23,39.23,0,0,1,11.05,17,40.82,40.82,0,0,1,30,10"/>
<path class="cls-1" d="M1,48.93A46.39,46.39,0,0,1,14.57,32.81a39.35,39.35,0,0,1,16.27-7.06"/></g></g></svg>