<svg xmlns="http://www.w3.org/2000/svg" stroke="currentColor" viewBox="0 0 34.44 54.26">
<defs><style>.cls-1{fill:none;stroke-miterlimit:10;stroke-width:2px;}</style>
</defs><g id="Layer_2" data-name="Layer 2"><g id="Layer_1-2" data-name="Layer 1">
<line class="cls-1" x1="18.99" y1="49.8" x2="18.99" y2="30.18"/><polyline class="cls-1"
 points="15.54 28.6 15.54 49.8 5.04 49.8 5.04 54.26"/><line class="cls-1" x1="6.08" y1="1" x2="27.43" y2="1"/>
 <path class="cls-1" d="M15.83,29.59c-1-.14-9-1.38-12.83-7.88-3.68-6.3-2.2-15,3.77-21"/>
 <line class="cls-1" x1="5.55" y1="53.25" x2="26.75" y2="53.25"/><line class="cls-1" x1="15.45" y1="49.8" x2="15.45" y2="30.18"/>
 <polyline class="cls-1" points="18.91 28.6 18.91 49.8 29.4 49.8 29.4 54.26"/><line class="cls-1" x1="28.36" y1="1" x2="7.01" y2="1"/>
 <path class="cls-1" d="M18.61,29.59c1-.14,9-1.38,12.83-7.88,3.68-6.3,2.2-15-3.77-21"/><line class="cls-1" 
 x1="28.89" y1="53.25" x2="7.69" y2="53.25"/></g></g></svg>