<svg xmlns="http://www.w3.org/2000/svg" viewBox="0 0 280.58 400.83" fill="currentColor" ><defs>
<!-- <style>.cls-1{fill:#008659;}.cls-2{fill:#fff;}</style> -->

</defs><g id="Layer_2"
 data-name="Layer 2"><g id="Layer_1-2" data-name="Layer 1"><path class="cls-1"
  d="M140.29,0A140.29,140.29,0,0,0,0,140.29C0,245.51,140.29,400.83,140.29,400.83S280.58,245.51,280.58,140.29A140.29,140.29,0,0,0,140.29,0"/><path class="cls-2" d="M237.37,178.46l-24.8,43a24.54,24.54,0,0,1-23,12.41H169.71v19.84L144.91,209l24.8-44.64v19.84h28l-22-38.2,43-24.8,17.86,30.95A24.64,24.64,0,0,1,237.37,178.46ZM112.26,55.84h49.61A24.89,24.89,0,0,1,184.1,69.63L194,86.89,211.18,77,185,120.72l-51.1.89,17.17-9.92-14-24.3-21.93,38.19-43.06-24.8,17.86-31A24.93,24.93,0,0,1,112.26,55.84ZM71,221.52l-24.8-43a24.89,24.89,0,0,1,.89-26.19L57,135.21l-17.16-9.92,51,.79,26.3,43.85L100,160,86,184.22H130v49.61H94.31A24.91,24.91,0,0,1,71,221.52Z"/></g></g></svg>