<svg xmlns="http://www.w3.org/2000/svg" stroke="currentColor" viewBox="0 0 51.78 55.33">
<defs><style>.cls-1{fill:none;stroke-miterlimit:10;stroke-width:2px;}</style></defs><g id="Layer_2" data-name="Layer 2"><g id="Layer_1-2" data-name="Layer 1"><path class="cls-1" d="M7.58,7.62H27.74a9.3,9.3,0,0,1,9.3,9.3v0a9.3,9.3,0,0,1-9.3,9.3H7.9a9.3,9.3,0,0,1-9.3-9.3V16.6a9,9,0,0,1,9-9Z" transform="translate(-6.74 16.2) rotate(-41.84)"/><path class="cls-1" d="M12.18,9a15.41,15.41,0,0,0,1.31,5.7A17.62,17.62,0,0,0,16.23,19,18.92,18.92,0,0,0,24,24.39"/><path class="cls-1" d="M21.33,35.74H41.48a9.3,9.3,0,0,1,9.3,9.3v0a9.3,9.3,0,0,1-9.3,9.3H21.64a9.3,9.3,0,0,1-9.3-9.3v-.32a9,9,0,0,1,9-9Z"/><path class="cls-1" d="M32.63,35.4a15.53,15.53,0,0,0-2.83,5.12,18.08,18.08,0,0,0-.83,5,18.75,18.75,0,0,0,2.25,9.21"/></g></g></svg>