<svg xmlns="http://www.w3.org/2000/svg" stroke="currentColor" viewBox="0 0 53.26 55.14">
<defs><style>.cls-1{fill:none;stroke-miterlimit:10;stroke-width:2px;}</style></defs>
<g id="Layer_2" data-name="Layer 2"><g id="Layer_1-2" data-name="Layer 1"><polyline class="cls-1" 
points="38.33 10.51 38.33 1 48.12 1 48.12 10.51 38.33 10.51"/><path class="cls-1" d="M.22,39.28c3.18.73,13,2.27,20.51-1C30.93,33.81,37.66,23,38.33,10.51"/><path class="cls-1" d="M43.79,10.51c.54,1.71,3.79,12.66-2.64,22.77-5,7.86-12.75,10.38-15.71,11.3A32.28,32.28,0,0,1,3.51,43.26"/><path class="cls-1" d="M.86,39.78C2.27,42,7.14,49.05,12.54,51.73c10.61,5.25,21.2.42,23.15-.47a28.93,28.93,0,0,0,11.77-9.79,28.68,28.68,0,0,0,4.71-18.35,29.52,29.52,0,0,0-4.05-12.61"/></g></g></svg>