<?xml version="1.0" standalone="no"?>
<svg xmlns:xlink="http://www.w3.org/1999/xlink" id="wave" style="transform:rotate(180deg); transition: 0.3s" viewBox="0 0 1440 290" version="1.1" xmlns="http://www.w3.org/2000/svg"><defs><linearGradient id="sw-gradient-0" x1="0" x2="0" y1="1" y2="0"><stop stop-color="rgba(140, 173, 139, 1)" offset="0%"/><stop stop-color="rgba(98, 142, 96, 1)" offset="100%"/></linearGradient></defs><path style="transform:translate(0, 0px); opacity:1" fill="url(#sw-gradient-0)" d="M0,145L120,154.7C240,164,480,184,720,169.2C960,155,1200,106,1440,87C1680,68,1920,77,2160,77.3C2400,77,2640,68,2880,87C3120,106,3360,155,3600,149.8C3840,145,4080,87,4320,91.8C4560,97,4800,164,5040,169.2C5280,174,5520,116,5760,116C6000,116,6240,174,6480,193.3C6720,213,6960,193,7200,198.2C7440,203,7680,232,7920,236.8C8160,242,8400,222,8640,212.7C8880,203,9120,203,9360,212.7C9600,222,9840,242,10080,222.3C10320,203,10560,145,10800,130.5C11040,116,11280,145,11520,130.5C11760,116,12000,58,12240,58C12480,58,12720,116,12960,130.5C13200,145,13440,116,13680,91.8C13920,68,14160,48,14400,67.7C14640,87,14880,145,15120,154.7C15360,164,15600,126,15840,125.7C16080,126,16320,164,16560,169.2C16800,174,17040,145,17160,130.5L17280,116L17280,290L17160,290C17040,290,16800,290,16560,290C16320,290,16080,290,15840,290C15600,290,15360,290,15120,290C14880,290,14640,290,14400,290C14160,290,13920,290,13680,290C13440,290,13200,290,12960,290C12720,290,12480,290,12240,290C12000,290,11760,290,11520,290C11280,290,11040,290,10800,290C10560,290,10320,290,10080,290C9840,290,9600,290,9360,290C9120,290,8880,290,8640,290C8400,290,8160,290,7920,290C7680,290,7440,290,7200,290C6960,290,6720,290,6480,290C6240,290,6000,290,5760,290C5520,290,5280,290,5040,290C4800,290,4560,290,4320,290C4080,290,3840,290,3600,290C3360,290,3120,290,2880,290C2640,290,2400,290,2160,290C1920,290,1680,290,1440,290C1200,290,960,290,720,290C480,290,240,290,120,290L0,290Z"/></svg>