<svg id="visual" viewBox="0 0 900 600" width="900" height="600" xmlns="http://www.w3.org/2000/svg" xmlns:xlink="http://www.w3.org/1999/xlink" version="1.1"><path d="M0 359L21.5 372.2C43 385.3 86 411.7 128.8 423.2C171.7 434.7 214.3 431.3 257.2 426.5C300 421.7 343 415.3 385.8 418.7C428.7 422 471.3 435 514.2 431C557 427 600 406 642.8 404C685.7 402 728.3 419 771.2 420.2C814 421.3 857 406.7 878.5 399.3L900 392L900 601L878.5 601C857 601 814 601 771.2 601C728.3 601 685.7 601 642.8 601C600 601 557 601 514.2 601C471.3 601 428.7 601 385.8 601C343 601 300 601 257.2 601C214.3 601 171.7 601 128.8 601C86 601 43 601 21.5 601L0 601Z" fill="#628e60"></path><path d="M0 453L21.5 455.3C43 457.7 86 462.3 128.8 460.3C171.7 458.3 214.3 449.7 257.2 451C300 452.3 343 463.7 385.8 457.3C428.7 451 471.3 427 514.2 425.7C557 424.3 600 445.7 642.8 456C685.7 466.3 728.3 465.7 771.2 463.8C814 462 857 459 878.5 457.5L900 456L900 601L878.5 601C857 601 814 601 771.2 601C728.3 601 685.7 601 642.8 601C600 601 557 601 514.2 601C471.3 601 428.7 601 385.8 601C343 601 300 601 257.2 601C214.3 601 171.7 601 128.8 601C86 601 43 601 21.5 601L0 601Z" fill="#7ca17a"></path><path d="M0 455L21.5 452.2C43 449.3 86 443.7 128.8 441.2C171.7 438.7 214.3 439.3 257.2 440.8C300 442.3 343 444.7 385.8 450.7C428.7 456.7 471.3 466.3 514.2 475.8C557 485.3 600 494.7 642.8 493.5C685.7 492.3 728.3 480.7 771.2 477.8C814 475 857 481 878.5 484L900 487L900 601L878.5 601C857 601 814 601 771.2 601C728.3 601 685.7 601 642.8 601C600 601 557 601 514.2 601C471.3 601 428.7 601 385.8 601C343 601 300 601 257.2 601C214.3 601 171.7 601 128.8 601C86 601 43 601 21.5 601L0 601Z" fill="#8cad8b"></path><path d="M0 530L21.5 523C43 516 86 502 128.8 499.3C171.7 496.7 214.3 505.3 257.2 510.5C300 515.7 343 517.3 385.8 514.8C428.7 512.3 471.3 505.7 514.2 505.7C557 505.7 600 512.3 642.8 513.8C685.7 515.3 728.3 511.7 771.2 512.5C814 513.3 857 518.7 878.5 521.3L900 524L900 601L878.5 601C857 601 814 601 771.2 601C728.3 601 685.7 601 642.8 601C600 601 557 601 514.2 601C471.3 601 428.7 601 385.8 601C343 601 300 601 257.2 601C214.3 601 171.7 601 128.8 601C86 601 43 601 21.5 601L0 601Z" fill="#7ca17a"></path><path d="M0 560L21.5 556C43 552 86 544 128.8 546C171.7 548 214.3 560 257.2 565.5C300 571 343 570 385.8 567C428.7 564 471.3 559 514.2 559.2C557 559.3 600 564.7 642.8 563.8C685.7 563 728.3 556 771.2 551.2C814 546.3 857 543.7 878.5 542.3L900 541L900 601L878.5 601C857 601 814 601 771.2 601C728.3 601 685.7 601 642.8 601C600 601 557 601 514.2 601C471.3 601 428.7 601 385.8 601C343 601 300 601 257.2 601C214.3 601 171.7 601 128.8 601C86 601 43 601 21.5 601L0 601Z" fill="#628e60"></path></svg>