<svg id="visual" viewBox="0 0 900 600" width="900" height="600" xmlns="http://www.w3.org/2000/svg" xmlns:xlink="http://www.w3.org/1999/xlink" version="1.1"><path d="M0 391L21.5 388C43 385 86 379 128.8 378.5C171.7 378 214.3 383 257.2 389.2C300 395.3 343 402.7 385.8 399.2C428.7 395.7 471.3 381.3 514.2 378.8C557 376.3 600 385.7 642.8 398C685.7 410.3 728.3 425.7 771.2 432.2C814 438.7 857 436.3 878.5 435.2L900 434L900 601L878.5 601C857 601 814 601 771.2 601C728.3 601 685.7 601 642.8 601C600 601 557 601 514.2 601C471.3 601 428.7 601 385.8 601C343 601 300 601 257.2 601C214.3 601 171.7 601 128.8 601C86 601 43 601 21.5 601L0 601Z" fill="#628e60"></path><path d="M0 478L21.5 476.2C43 474.3 86 470.7 128.8 457C171.7 443.3 214.3 419.7 257.2 419.2C300 418.7 343 441.3 385.8 441.3C428.7 441.3 471.3 418.7 514.2 414.5C557 410.3 600 424.7 642.8 428.8C685.7 433 728.3 427 771.2 427C814 427 857 433 878.5 436L900 439L900 601L878.5 601C857 601 814 601 771.2 601C728.3 601 685.7 601 642.8 601C600 601 557 601 514.2 601C471.3 601 428.7 601 385.8 601C343 601 300 601 257.2 601C214.3 601 171.7 601 128.8 601C86 601 43 601 21.5 601L0 601Z" fill="#7ca17a"></path><path d="M0 450L21.5 457.5C43 465 86 480 128.8 479.5C171.7 479 214.3 463 257.2 459.2C300 455.3 343 463.7 385.8 468C428.7 472.3 471.3 472.7 514.2 469.8C557 467 600 461 642.8 456C685.7 451 728.3 447 771.2 449.2C814 451.3 857 459.7 878.5 463.8L900 468L900 601L878.5 601C857 601 814 601 771.2 601C728.3 601 685.7 601 642.8 601C600 601 557 601 514.2 601C471.3 601 428.7 601 385.8 601C343 601 300 601 257.2 601C214.3 601 171.7 601 128.8 601C86 601 43 601 21.5 601L0 601Z" fill="#8cad8b"></path><path d="M0 534L21.5 525.8C43 517.7 86 501.3 128.8 502.2C171.7 503 214.3 521 257.2 529.3C300 537.7 343 536.3 385.8 535C428.7 533.7 471.3 532.3 514.2 528.7C557 525 600 519 642.8 517.8C685.7 516.7 728.3 520.3 771.2 517.7C814 515 857 506 878.5 501.5L900 497L900 601L878.5 601C857 601 814 601 771.2 601C728.3 601 685.7 601 642.8 601C600 601 557 601 514.2 601C471.3 601 428.7 601 385.8 601C343 601 300 601 257.2 601C214.3 601 171.7 601 128.8 601C86 601 43 601 21.5 601L0 601Z" fill="#7ca17a"></path><path d="M0 572L21.5 566.7C43 561.3 86 550.7 128.8 547.7C171.7 544.7 214.3 549.3 257.2 553.5C300 557.7 343 561.3 385.8 556.3C428.7 551.3 471.3 537.7 514.2 531.8C557 526 600 528 642.8 529.3C685.7 530.7 728.3 531.3 771.2 530.5C814 529.7 857 527.3 878.5 526.2L900 525L900 601L878.5 601C857 601 814 601 771.2 601C728.3 601 685.7 601 642.8 601C600 601 557 601 514.2 601C471.3 601 428.7 601 385.8 601C343 601 300 601 257.2 601C214.3 601 171.7 601 128.8 601C86 601 43 601 21.5 601L0 601Z" fill="#628e60"></path></svg>